<mxfile host="app.diagrams.net" modified="2020-12-22T06:44:16.955Z" agent="5.0 (Macintosh; Intel Mac OS X 10_15_3) AppleWebKit/537.36 (KHTML, like Gecko) Chrome/87.0.4280.88 Safari/537.36" etag="frE50oMQotVx7ai9Ik5n" version="14.1.1" type="github">
  <diagram id="cTgDgX14xikcMWw0g8CN" name="第 1 页">
    <mxGraphModel dx="786" dy="496" grid="1" gridSize="10" guides="1" tooltips="1" connect="1" arrows="1" fold="1" page="1" pageScale="1" pageWidth="827" pageHeight="1169" math="0" shadow="0">
      <root>
        <mxCell id="0" />
        <mxCell id="1" parent="0" />
        <mxCell id="xF1rdSyoxAT8YF1817bv-9" value="" style="rounded=0;whiteSpace=wrap;html=1;fontSize=12;" parent="1" vertex="1">
          <mxGeometry x="280" y="120" width="200" height="440" as="geometry" />
        </mxCell>
        <mxCell id="FmoRXkVZ_B5khsW4gfr9-1" value="3对比外部数据" style="edgeStyle=orthogonalEdgeStyle;rounded=0;orthogonalLoop=1;jettySize=auto;html=1;exitX=1;exitY=0.5;exitDx=0;exitDy=0;entryX=0;entryY=0.5;entryDx=0;entryDy=0;" parent="1" source="xF1rdSyoxAT8YF1817bv-2" target="xF1rdSyoxAT8YF1817bv-4" edge="1">
          <mxGeometry relative="1" as="geometry" />
        </mxCell>
        <mxCell id="_0y3EcO1f4_7wjKOn7lR-2" value="4存储结果" style="edgeStyle=orthogonalEdgeStyle;rounded=0;orthogonalLoop=1;jettySize=auto;html=1;exitX=0.75;exitY=1;exitDx=0;exitDy=0;entryX=1;entryY=0.5;entryDx=0;entryDy=0;entryPerimeter=0;strokeColor=#000000;" edge="1" parent="1" source="xF1rdSyoxAT8YF1817bv-2" target="xF1rdSyoxAT8YF1817bv-8">
          <mxGeometry relative="1" as="geometry">
            <Array as="points">
              <mxPoint x="410" y="240" />
              <mxPoint x="434" y="240" />
              <mxPoint x="434" y="340" />
            </Array>
          </mxGeometry>
        </mxCell>
        <mxCell id="xF1rdSyoxAT8YF1817bv-2" value="定时任务-数据验证" style="whiteSpace=wrap;html=1;rounded=1;fontSize=12;" parent="1" vertex="1">
          <mxGeometry x="320" y="160" width="120" height="60" as="geometry" />
        </mxCell>
        <mxCell id="xF1rdSyoxAT8YF1817bv-4" value="B" style="whiteSpace=wrap;html=1;rounded=1;fontSize=12;" parent="1" vertex="1">
          <mxGeometry x="600" y="160" width="120" height="60" as="geometry" />
        </mxCell>
        <mxCell id="xF1rdSyoxAT8YF1817bv-8" value="&lt;br&gt;存储" style="shape=cylinder3;whiteSpace=wrap;html=1;boundedLbl=1;backgroundOutline=1;size=15;fontSize=12;" parent="1" vertex="1">
          <mxGeometry x="344" y="300" width="70" height="80" as="geometry" />
        </mxCell>
        <mxCell id="xF1rdSyoxAT8YF1817bv-10" value="&lt;span&gt;数据同步服务&lt;/span&gt;" style="rounded=1;whiteSpace=wrap;html=1;fontSize=12;" parent="1" vertex="1">
          <mxGeometry x="319" y="440" width="120" height="60" as="geometry" />
        </mxCell>
        <mxCell id="_0y3EcO1f4_7wjKOn7lR-1" value="1获取增量数据" style="edgeStyle=orthogonalEdgeStyle;rounded=0;orthogonalLoop=1;jettySize=auto;html=1;exitX=0.25;exitY=1;exitDx=0;exitDy=0;entryX=0.25;entryY=0;entryDx=0;entryDy=0;strokeColor=#000000;" edge="1" parent="1" source="xF1rdSyoxAT8YF1817bv-2" target="xF1rdSyoxAT8YF1817bv-10">
          <mxGeometry relative="1" as="geometry">
            <Array as="points">
              <mxPoint x="350" y="270" />
              <mxPoint x="320" y="270" />
              <mxPoint x="320" y="410" />
              <mxPoint x="349" y="410" />
            </Array>
          </mxGeometry>
        </mxCell>
        <mxCell id="xF1rdSyoxAT8YF1817bv-7" value="2对比本地数据" style="edgeStyle=orthogonalEdgeStyle;rounded=0;orthogonalLoop=1;jettySize=auto;html=1;fontSize=12;" parent="1" source="xF1rdSyoxAT8YF1817bv-2" edge="1">
          <mxGeometry relative="1" as="geometry">
            <mxPoint x="380" y="300" as="targetPoint" />
          </mxGeometry>
        </mxCell>
      </root>
    </mxGraphModel>
  </diagram>
</mxfile>
